<svg width="44" height="44" viewBox="0 0 44 44" fill="none" xmlns="http://www.w3.org/2000/svg">
<path d="M12 18.286C12 17.1722 12.9099 16.273 14.0236 16.2861L16.3384 16.3134C16.6417 16.317 16.9302 16.1827 17.1228 15.9483L19.2454 13.3651C19.4354 13.134 19.7188 13 20.018 13H24.078C24.3743 13 24.6553 13.1313 24.8453 13.3586L26.9729 15.9037C27.1629 16.1309 27.4439 16.2623 27.7401 16.2623H30C31.1046 16.2623 32 17.1577 32 18.2623V29.25C32 30.3546 31.1046 31.25 30 31.25H14C12.8954 31.25 12 30.3546 12 29.25V18.286Z" stroke="#202020" stroke-width="2"/>
<circle cx="22" cy="23" r="4" stroke="#202020" stroke-width="2"/>
</svg>
