<svg width="24" height="25" viewBox="0 0 24 25" fill="none" xmlns="http://www.w3.org/2000/svg">
<path d="M21.75 11H21V8H19.5V11H18V8H16.5V11H15.75C15.5511 11 15.3603 11.079 15.2197 11.2197C15.079 11.3603 15 11.5511 15 11.75V14.75C15.0011 15.6141 15.3001 16.4513 15.8466 17.1206C16.3931 17.7899 17.1536 18.2503 18 18.4242V20.75C18 20.9489 17.921 21.1397 17.7803 21.2803C17.6397 21.421 17.4489 21.5 17.25 21.5H3.75C3.55109 21.5 3.36032 21.421 3.21967 21.2803C3.07902 21.1397 3 20.9489 3 20.75C3 20.5511 3.07902 20.3603 3.21967 20.2197C3.36032 20.079 3.55109 20 3.75 20H7.5C8.09674 20 8.66903 19.7629 9.09099 19.341C9.51295 18.919 9.75 18.3467 9.75 17.75C9.75 17.1533 9.51295 16.581 9.09099 16.159C8.66903 15.7371 8.09674 15.5 7.5 15.5H3.75C3.55109 15.5 3.36032 15.421 3.21967 15.2803C3.07902 15.1397 3 14.9489 3 14.75C3 14.5511 3.07902 14.3603 3.21967 14.2197C3.36032 14.079 3.55109 14 3.75 14H7.5C8.09655 13.9994 8.6685 13.7622 9.09033 13.3403C9.51216 12.9185 9.7494 12.3466 9.75 11.75V8.75H10.5C11.2953 8.74901 12.0578 8.43262 12.6202 7.87022C13.1826 7.30783 13.499 6.54534 13.5 5.75V3.5H11.25C10.4821 3.50113 9.7442 3.79823 9.18975 4.3295C8.80121 3.62452 8.23081 3.03658 7.53791 2.62688C6.84501 2.21718 6.05496 2.00071 5.25 2H3V4.25C3.00139 5.44305 3.47594 6.58683 4.31955 7.43045C5.16317 8.27406 6.30695 8.74861 7.5 8.75H8.25V11.75C8.25 11.9489 8.17098 12.1397 8.03033 12.2803C7.88968 12.421 7.69891 12.5 7.5 12.5H3.75C3.15326 12.5 2.58097 12.7371 2.15901 13.159C1.73705 13.581 1.5 14.1533 1.5 14.75C1.5 15.3467 1.73705 15.919 2.15901 16.341C2.58097 16.7629 3.15326 17 3.75 17H7.5C7.69891 17 7.88968 17.079 8.03033 17.2197C8.17098 17.3603 8.25 17.5511 8.25 17.75C8.25 17.9489 8.17098 18.1397 8.03033 18.2803C7.88968 18.421 7.69891 18.5 7.5 18.5H3.75C3.15326 18.5 2.58097 18.7371 2.15901 19.159C1.73705 19.581 1.5 20.1533 1.5 20.75C1.5 21.3467 1.73705 21.919 2.15901 22.341C2.58097 22.7629 3.15326 23 3.75 23H17.25C17.8466 22.9994 18.4185 22.7622 18.8403 22.3403C19.2622 21.9185 19.4994 21.3466 19.5 20.75V18.4242C20.3464 18.2503 21.1069 17.7899 21.6534 17.1206C22.1999 16.4513 22.4989 15.6141 22.5 14.75V11.75C22.5 11.5511 22.421 11.3603 22.2803 11.2197C22.1397 11.079 21.9489 11 21.75 11ZM9.75 6.5C9.7504 6.1023 9.90856 5.721 10.1898 5.43978C10.471 5.15856 10.8523 5.0004 11.25 5H12V5.75C11.9996 6.1477 11.8414 6.529 11.5602 6.81022C11.279 7.09144 10.8977 7.2496 10.5 7.25H9.75V6.5ZM7.5 7.25C6.70466 7.24901 5.94217 6.93262 5.37978 6.37022C4.81738 5.80783 4.50099 5.04534 4.5 4.25V3.5H5.25C6.04534 3.50099 6.80783 3.81738 7.37022 4.37978C7.93262 4.94217 8.24901 5.70466 8.25 6.5V7.25H7.5ZM21 14.75C21 15.3467 20.7629 15.919 20.341 16.341C19.919 16.7629 19.3467 17 18.75 17C18.1533 17 17.581 16.7629 17.159 16.341C16.7371 15.919 16.5 15.3467 16.5 14.75V12.5H21V14.75Z" fill="black"/>
</svg>
