<svg width="23" height="25" viewBox="0 0 23 25" fill="none" xmlns="http://www.w3.org/2000/svg">
<path d="M22.5983 22.2224L20.9579 17.3H19.1579L20.1575 22.1H2.55825L3.55785 17.3H1.75785L0.116254 22.2224C-0.300146 23.4752 0.437854 24.5 1.75785 24.5H20.9579C22.2779 24.5 23.0159 23.4752 22.5983 22.2224ZM17.3579 6.5C17.3579 4.9087 16.7257 3.38258 15.6005 2.25736C14.4753 1.13214 12.9492 0.5 11.3579 0.5C9.76656 0.5 8.24043 1.13214 7.11521 2.25736C5.99 3.38258 5.35785 4.9087 5.35785 6.5C5.35785 12.23 11.3579 18.5 11.3579 18.5C11.3579 18.5 17.3579 12.23 17.3579 6.5ZM8.11786 6.572C8.11786 6.14657 8.20167 5.72532 8.36451 5.33229C8.52735 4.93926 8.76602 4.58216 9.0669 4.2814C9.36778 3.98063 9.72496 3.74209 10.1181 3.57939C10.5111 3.4167 10.9324 3.33304 11.3579 3.3332C12.217 3.3332 13.041 3.67449 13.6485 4.282C14.256 4.8895 14.5973 5.71346 14.5973 6.5726C14.5973 7.43174 14.256 8.2557 13.6485 8.8632C13.041 9.47071 12.217 9.812 11.3579 9.812C10.4986 9.812 9.67445 9.47064 9.06683 8.86303C8.45921 8.25541 8.11786 7.4313 8.11786 6.572Z" fill="black"/>
</svg>
