<svg width="25" height="25" viewBox="0 0 25 25" fill="none" xmlns="http://www.w3.org/2000/svg">
<path fill-rule="evenodd" clip-rule="evenodd" d="M0.00326944 4.21853C0.00173345 2.23031 1.61226 0.617285 3.60049 0.615749L20.4005 0.60277C22.3887 0.601234 24.0017 2.21176 24.0033 4.19999L24.0107 13.8C24.0122 15.7882 22.4017 17.4012 20.4135 17.4028L14.9105 17.407L9.26636 23.0599C8.92342 23.4034 8.40736 23.5064 7.95881 23.321C7.51026 23.1357 7.21755 22.6983 7.21717 22.213L7.21347 17.413L3.61347 17.4157C1.62524 17.4173 0.0122219 15.8067 0.0106859 13.8185L0.00326944 4.21853ZM3.60234 3.01575C2.9396 3.01626 2.40276 3.55393 2.40327 4.21668L2.41069 13.8167C2.4112 14.4794 2.94887 15.0163 3.61161 15.0157L8.41161 15.012C9.07435 15.0115 9.61203 15.5484 9.61254 16.2111L9.61493 19.3141L13.5634 15.3595C13.7882 15.1343 14.0933 15.0076 14.4116 15.0074L20.4116 15.0028C21.0743 15.0023 21.6112 14.4646 21.6107 13.8018L21.6033 4.20184C21.6028 3.5391 21.0651 3.00226 20.4023 3.00277L3.60234 3.01575ZM6.00698 9.01389C6.00646 8.35115 6.54331 7.81348 7.20605 7.81297L7.21805 7.81296C7.88079 7.81244 8.41846 8.34929 8.41898 9.01203C8.41949 9.67477 7.88264 10.2124 7.2199 10.213L7.2079 10.213C6.54516 10.2135 6.00749 9.67663 6.00698 9.01389ZM10.807 9.01018C10.8065 8.34744 11.3433 7.80977 12.006 7.80926L12.018 7.80925C12.6808 7.80874 13.2185 8.34558 13.219 9.00832C13.2195 9.67106 12.6826 10.2087 12.0199 10.2092L12.0079 10.2093C11.3452 10.2098 10.8075 9.67293 10.807 9.01018ZM15.607 9.00648C15.6065 8.34373 16.1433 7.80606 16.806 7.80555L16.818 7.80554C17.4808 7.80503 18.0185 8.34187 18.019 9.00461C18.0195 9.66735 17.4826 10.205 16.8199 10.2055L16.8079 10.2055C16.1452 10.2061 15.6075 9.66922 15.607 9.00648Z" fill="black"/>
</svg>
