<svg width="24" height="25" viewBox="0 0 24 25" fill="none" xmlns="http://www.w3.org/2000/svg">
<path d="M7.36628 0.500935C6.40287 0.489998 5.44688 0.670958 4.55366 1.03334C3.66043 1.39571 2.84773 1.93231 2.16261 2.61205C1.4775 3.29178 0.933581 4.10116 0.562363 4.99329C0.191144 5.88543 0 6.8426 0 7.80938C0 8.77616 0.191144 9.73333 0.562363 10.6255C0.933581 11.5176 1.4775 12.327 2.16261 13.0067C2.84773 13.6864 3.66043 14.223 4.55366 14.5854C5.44688 14.9478 6.40287 15.1288 7.36628 15.1178C9.29808 15.1178 11.1508 14.3478 12.5168 12.9771C13.8827 11.6064 14.6502 9.74735 14.6502 7.80891C14.6502 5.87047 13.8827 4.01142 12.5168 2.64073C11.1508 1.27004 9.29808 0.500936 7.36628 0.500935ZM5.03559 3.04264C5.35342 3.04202 5.66824 3.1044 5.96198 3.22619C6.25573 3.34798 6.5226 3.52678 6.7473 3.75234C6.972 3.97789 7.15009 4.24576 7.27135 4.54056C7.39261 4.83536 7.45465 5.15129 7.45391 5.47021C7.45477 5.78912 7.39281 6.10506 7.27158 6.39986C7.15035 6.69467 6.97226 6.96252 6.74752 7.18803C6.52279 7.41353 6.25585 7.59225 5.96206 7.71389C5.66826 7.83553 5.35341 7.89771 5.03559 7.89685C4.71777 7.89771 4.40291 7.83553 4.10912 7.71389C3.81532 7.59225 3.54839 7.41353 3.32365 7.18803C3.09892 6.96252 2.92082 6.69467 2.79959 6.39986C2.67837 6.10506 2.6164 5.78912 2.61726 5.47021C2.61665 5.15137 2.67878 4.83554 2.8001 4.54085C2.92141 4.24616 3.09952 3.9784 3.3242 3.75294C3.54889 3.52749 3.81573 3.34876 4.10941 3.22703C4.40309 3.1053 4.71784 3.04202 5.03559 3.04264ZM15.3783 11.1991C15.1224 11.7991 14.7997 12.3681 14.4162 12.8951L21.7 20.2031C21.8532 20.3589 21.939 20.5689 21.939 20.7878C21.939 21.0066 21.8532 21.2166 21.7 21.3724C21.5445 21.5257 21.3353 21.6115 21.1174 21.6115C20.8994 21.6115 20.6902 21.5257 20.5347 21.3724L13.3384 14.1225C12.4297 14.9864 11.3469 15.6448 10.1631 16.0533V17.3396C10.1631 17.7512 10.509 18.0992 10.921 18.0992H12.9599V20.146C12.9599 20.5576 13.3058 20.9056 13.7179 20.9056H15.7568V22.9525C15.7568 23.3641 16.1036 23.7121 16.5147 23.7121H18.5825L19.1074 24.2388C19.4262 24.5578 22.6202 24.7177 23.4191 23.917C24.2181 23.1143 24.0568 19.9094 23.7389 19.5904L15.3783 11.1991Z" fill="black"/>
</svg>
