<svg width="26" height="26" viewBox="0 0 26 26" fill="none" xmlns="http://www.w3.org/2000/svg">
<path fill-rule="evenodd" clip-rule="evenodd" d="M13.0004 4.33325C13.4349 4.33325 13.8633 4.36544 14.2805 4.42735L14.9095 6.33278C15.4604 6.49001 15.9842 6.71411 16.4695 6.9964L18.2771 6.12478C18.9172 6.6163 19.4867 7.19573 19.9671 7.84449L19.0633 9.63601C19.3369 10.1263 19.5524 10.6537 19.6997 11.2084L21.594 11.8683C21.6983 12.6694 21.6913 13.481 21.5729 14.2801L19.6675 14.9091C19.5113 15.4544 19.2884 15.9784 19.0039 16.4691L19.8755 18.2767C19.3833 18.917 18.8045 19.4857 18.1558 19.9667L16.3643 19.0629C15.8687 19.3396 15.3404 19.5534 14.7919 19.6993L14.132 21.5935C13.3309 21.6979 12.5193 21.6908 11.7202 21.5725L11.0912 19.6671C10.5459 19.5109 10.0219 19.288 9.53121 19.0034L7.72359 19.8751C7.08332 19.3829 6.51455 18.8041 6.03359 18.1553L6.9374 16.3638C6.66132 15.8679 6.44757 15.3398 6.30102 14.7914L4.40673 14.1303C4.30248 13.3297 4.30956 12.5184 4.42778 11.7197L6.33321 11.0908C6.49045 10.5398 6.71454 10.0161 6.99683 9.53078L6.12521 7.72316C6.6174 7.08289 7.19617 6.51411 7.84492 6.03316L9.63645 6.93697C10.132 6.66021 10.6603 6.44643 11.2088 6.30059L11.87 4.4063C12.2448 4.35754 12.6224 4.33314 13.0004 4.33325Z" stroke="black" stroke-width="1.15514" stroke-linecap="round" stroke-linejoin="round"/>
<path d="M12.9999 16.7142C15.0513 16.7142 16.7142 15.0513 16.7142 12.9999C16.7142 10.9486 15.0513 9.28564 12.9999 9.28564C10.9486 9.28564 9.28564 10.9486 9.28564 12.9999C9.28564 15.0513 10.9486 16.7142 12.9999 16.7142Z" stroke="black" stroke-width="1.2381" stroke-linecap="round" stroke-linejoin="round"/>
</svg>
