<svg width="25" height="25" viewBox="0 0 25 25" fill="none" xmlns="http://www.w3.org/2000/svg">
<path fill-rule="evenodd" clip-rule="evenodd" d="M19.6217 0.079988C20.09 0.255361 20.4005 0.702772 20.4009 1.20285L20.4038 4.95406C22.4745 5.48531 24.0056 7.36344 24.0074 9.60004C24.0091 11.8366 22.4808 13.7171 20.411 14.2516L20.4139 18.0028C20.4142 18.5029 20.1045 18.9508 19.6364 19.1269C19.1684 19.303 18.6402 19.1703 18.3109 18.794C17.5746 17.9528 16.2713 17.1461 14.4831 16.5511C13.7255 16.299 12.8966 16.0903 12.0123 15.9342L12.016 20.6975C12.0174 22.5265 10.5358 24.0104 8.70673 24.0118C7.30713 24.0129 6.05795 23.134 5.5862 21.8163L5.58329 21.8082L3.16576 14.8994C1.28851 13.8881 0.00918219 11.9042 0.00741645 9.61858C0.00485647 6.30488 2.68906 3.61652 6.00276 3.61396L8.20126 3.61227C9.04627 3.61161 9.86694 3.56507 10.6538 3.47813C10.6642 3.47684 10.6746 3.47568 10.6851 3.47466C12.07 3.31958 13.3496 3.03928 14.4724 2.66375C16.2597 2.06599 17.5617 1.25721 18.2967 0.414863C18.6254 0.0380478 19.1534 -0.0953854 19.6217 0.079988ZM9.60458 5.97262C9.14369 5.99849 8.67608 6.01189 8.20312 6.01226L6.00461 6.01396C4.0164 6.01549 2.40587 7.62851 2.40741 9.61673C2.40856 11.1037 3.31139 12.3822 4.60317 12.9301C5.03391 13.1128 5.50863 13.2143 6.01016 13.2139L8.20868 13.2122C8.68165 13.2119 9.14927 13.2246 9.6102 13.2497L9.60458 5.97262ZM12.0104 13.5009L12.0044 5.7177C13.154 5.53546 14.2389 5.27252 15.2337 4.93982C16.241 4.60289 17.1781 4.18678 18.0028 3.69565L18.0119 15.5137C17.1865 15.0239 16.2488 14.6092 15.2409 14.2738C14.2456 13.9427 13.1602 13.6814 12.0104 13.5009ZM20.409 11.6817C21.126 11.2662 21.608 10.4902 21.6074 9.6019C21.6067 8.71356 21.1234 7.93832 20.4058 7.52391L20.409 11.6817ZM9.61206 15.6538C9.15369 15.626 8.68595 15.6119 8.21053 15.6122L6.012 15.6139C5.99412 15.6139 5.97626 15.6139 5.95842 15.6137L7.84575 21.0074L7.84691 21.0106C7.97767 21.3716 8.32069 21.6121 8.70488 21.6118C9.20844 21.6115 9.61635 21.2029 9.61596 20.6994L9.61206 15.6538Z" fill="black"/>
</svg>
