<svg width="24" height="24" viewBox="0 0 24 24" fill="none" xmlns="http://www.w3.org/2000/svg">
<path d="M18.0001 12H19.8741C20.4741 12 20.9611 12.487 20.9611 13.087V20.163C20.9611 20.763 20.4741 21.25 19.8741 21.25H18.0011C17.4011 21.25 16.9141 20.763 16.9141 20.163V13.087C16.9141 12.487 17.4001 12 18.0001 12ZM11.0631 7.375H12.9371C13.5371 7.375 14.0231 7.862 14.0231 8.462V20.163C14.0231 20.763 13.5371 21.25 12.9371 21.25H11.0631C10.4631 21.25 9.97706 20.763 9.97706 20.163V8.462C9.97706 7.862 10.4631 7.375 11.0631 7.375ZM4.12606 2.75H5.99906C6.59906 2.75 7.08606 3.237 7.08606 3.837V20.163C7.08606 20.763 6.59906 21.25 5.99906 21.25H4.12606C3.52606 21.25 3.03906 20.763 3.03906 20.163V3.837C3.03906 3.237 3.52606 2.75 4.12606 2.75Z" stroke="black" stroke-width="1.3" stroke-linecap="round" stroke-linejoin="round"/>
</svg>
