<svg width="25" height="24" viewBox="0 0 25 24" fill="none" xmlns="http://www.w3.org/2000/svg">
<path d="M12.6 9.52C12.1095 9.52 11.63 9.66545 11.2222 9.93795C10.8143 10.2105 10.4965 10.5978 10.3088 11.0509C10.121 11.5041 10.0719 12.0028 10.1676 12.4838C10.2633 12.9649 10.4995 13.4068 10.8464 13.7536C11.1932 14.1005 11.6351 14.3367 12.1162 14.4323C12.5972 14.528 13.0959 14.4789 13.549 14.2912C14.0022 14.1035 14.3895 13.7856 14.662 13.3778C14.9345 12.97 15.08 12.4905 15.08 12C15.08 11.6743 15.0158 11.3518 14.8912 11.0509C14.7666 10.7501 14.5839 10.4767 14.3536 10.2464C14.1233 10.0161 13.8499 9.83341 13.549 9.70878C13.2481 9.58415 12.9257 9.52 12.6 9.52ZM22.53 7.07C22.5247 6.29776 22.3825 5.53257 22.11 4.81C21.9093 4.28126 21.5987 3.80109 21.1988 3.40119C20.7989 3.00128 20.3187 2.69072 19.79 2.49C19.0674 2.21746 18.3022 2.07526 17.53 2.07C16.24 2 15.86 2 12.6 2C9.33998 2 8.95998 2 7.66998 2.07C6.89773 2.07526 6.13255 2.21746 5.40998 2.49C4.88124 2.69072 4.40107 3.00128 4.00116 3.40119C3.60125 3.80109 3.29069 4.28126 3.08998 4.81C2.81744 5.53257 2.67524 6.29776 2.66998 7.07C2.59998 8.36 2.59998 8.74 2.59998 12C2.59998 15.26 2.59998 15.64 2.66998 16.93C2.68074 17.705 2.82275 18.4725 3.08998 19.2C3.2898 19.7263 3.6001 20.2037 3.99998 20.6C4.39817 21.0023 4.87936 21.3129 5.40998 21.51C6.13255 21.7825 6.89773 21.9247 7.66998 21.93C8.95998 22 9.33998 22 12.6 22C15.86 22 16.24 22 17.53 21.93C18.3022 21.9247 19.0674 21.7825 19.79 21.51C20.3206 21.3129 20.8018 21.0023 21.2 20.6C21.5998 20.2037 21.9101 19.7263 22.11 19.2C22.3822 18.4739 22.5244 17.7055 22.53 16.93C22.6 15.64 22.6 15.26 22.6 12C22.6 8.74 22.6 8.36 22.53 7.07ZM19.99 15.07C19.9579 15.6871 19.8262 16.295 19.6 16.87C19.4058 17.3497 19.1172 17.7854 18.7513 18.1514C18.3854 18.5173 17.9497 18.8059 17.47 19C16.8895 19.2136 16.2782 19.3318 15.66 19.35H9.53998C8.92171 19.3318 8.31046 19.2136 7.72998 19C7.23408 18.8157 6.78625 18.5217 6.41998 18.14C6.05764 17.7813 5.77782 17.3479 5.59998 16.87C5.38553 16.2901 5.27058 15.6782 5.25998 15.06V8.94C5.27058 8.32183 5.38553 7.70988 5.59998 7.13C5.78426 6.6341 6.07825 6.18628 6.45998 5.82C6.82031 5.45962 7.25324 5.18009 7.72998 5C8.31046 4.78641 8.92171 4.66821 9.53998 4.65H15.66C16.2782 4.66821 16.8895 4.78641 17.47 5C17.9659 5.18428 18.4137 5.47827 18.78 5.86C19.1423 6.21875 19.4221 6.65213 19.6 7.13C19.8136 7.71049 19.9318 8.32173 19.95 8.94V12C19.95 14.06 20.02 14.27 19.99 15.06V15.07ZM18.39 7.63C18.2709 7.30698 18.0832 7.01364 17.8398 6.77021C17.5963 6.52678 17.303 6.33906 16.98 6.22C16.5364 6.06626 16.0693 5.99179 15.6 6H9.59998C9.12824 6.00461 8.66104 6.09263 8.21998 6.26C7.9019 6.37366 7.61167 6.55371 7.36856 6.7882C7.12545 7.02269 6.93504 7.30624 6.80998 7.62C6.66475 8.06537 6.5938 8.5316 6.59998 9V15C6.60989 15.4712 6.69774 15.9375 6.85998 16.38C6.97904 16.703 7.16676 16.9964 7.41019 17.2398C7.65362 17.4832 7.94696 17.6709 8.26998 17.79C8.69664 17.9469 9.14563 18.0347 9.59998 18.05H15.6C16.0717 18.0454 16.5389 17.9574 16.98 17.79C17.303 17.6709 17.5963 17.4832 17.8398 17.2398C18.0832 16.9964 18.2709 16.703 18.39 16.38C18.5573 15.9389 18.6454 15.4717 18.65 15V9C18.6503 8.5278 18.5621 8.05972 18.39 7.62V7.63ZM12.6 15.82C12.0988 15.82 11.6025 15.7211 11.1396 15.529C10.6767 15.3369 10.2563 15.0554 9.90236 14.7005C9.54843 14.3457 9.268 13.9245 9.07712 13.4611C8.88624 12.9977 8.78866 12.5012 8.78998 12C8.78998 11.2441 9.01427 10.5051 9.43446 9.87669C9.85465 9.24828 10.4518 8.75866 11.1504 8.46983C11.849 8.181 12.6176 8.10594 13.3589 8.25415C14.1002 8.40236 14.7808 8.76717 15.3147 9.30241C15.8485 9.83764 16.2115 10.5192 16.3578 11.2609C16.5041 12.0026 16.427 12.771 16.1363 13.4688C15.8457 14.1666 15.3545 14.7625 14.725 15.1811C14.0955 15.5996 13.3559 15.822 12.6 15.82ZM16.6 8.93C16.3789 8.9066 16.1743 8.80222 16.0257 8.63697C15.877 8.47172 15.7947 8.25729 15.7947 8.035C15.7947 7.81271 15.877 7.59828 16.0257 7.43303C16.1743 7.26778 16.3789 7.1634 16.6 7.14C16.821 7.1634 17.0256 7.26778 17.1743 7.43303C17.323 7.59828 17.4052 7.81271 17.4052 8.035C17.4052 8.25729 17.323 8.47172 17.1743 8.63697C17.0256 8.80222 16.821 8.9066 16.6 8.93Z" fill="white"/>
</svg>
