<svg width="25" height="24" viewBox="0 0 25 24" fill="none" xmlns="http://www.w3.org/2000/svg">
<g clip-path="url(#clip0_359_1136)">
<path fill-rule="evenodd" clip-rule="evenodd" d="M18.6 3C19.3956 3 20.1587 3.31607 20.7213 3.87868C21.2839 4.44129 21.6 5.20435 21.6 6V18C21.6 18.7956 21.2839 19.5587 20.7213 20.1213C20.1587 20.6839 19.3956 21 18.6 21H6.59998C5.80433 21 5.04126 20.6839 4.47866 20.1213C3.91605 19.5587 3.59998 18.7956 3.59998 18V6C3.59998 5.20435 3.91605 4.44129 4.47866 3.87868C5.04126 3.31607 5.80433 3 6.59998 3H18.6ZM8.59998 10C8.33476 10 8.08041 10.1054 7.89287 10.2929C7.70533 10.4804 7.59998 10.7348 7.59998 11V16C7.59998 16.2652 7.70533 16.5196 7.89287 16.7071C8.08041 16.8946 8.33476 17 8.59998 17C8.86519 17 9.11955 16.8946 9.30708 16.7071C9.49462 16.5196 9.59998 16.2652 9.59998 16V11C9.59998 10.7348 9.49462 10.4804 9.30708 10.2929C9.11955 10.1054 8.86519 10 8.59998 10ZM11.6 9C11.3348 9 11.0804 9.10536 10.8929 9.29289C10.7053 9.48043 10.6 9.73478 10.6 10V16C10.6 16.2652 10.7053 16.5196 10.8929 16.7071C11.0804 16.8946 11.3348 17 11.6 17C11.8652 17 12.1195 16.8946 12.3071 16.7071C12.4946 16.5196 12.6 16.2652 12.6 16V12.34C12.905 11.996 13.42 11.592 13.993 11.347C14.326 11.205 14.827 11.147 15.175 11.257C15.2904 11.2863 15.3932 11.3523 15.468 11.445C15.52 11.515 15.6 11.671 15.6 12V16C15.6 16.2652 15.7053 16.5196 15.8929 16.7071C16.0804 16.8946 16.3348 17 16.6 17C16.8652 17 17.1195 16.8946 17.3071 16.7071C17.4946 16.5196 17.6 16.2652 17.6 16V12C17.6 11.33 17.43 10.734 17.076 10.256C16.7502 9.82256 16.2943 9.50472 15.775 9.349C14.873 9.066 13.874 9.223 13.207 9.509C12.9933 9.60046 12.7852 9.70465 12.584 9.821C12.5421 9.59059 12.4206 9.3822 12.2408 9.23216C12.0609 9.08213 11.8342 8.99996 11.6 9ZM8.59998 7C8.33476 7 8.08041 7.10536 7.89287 7.29289C7.70533 7.48043 7.59998 7.73478 7.59998 8C7.59998 8.26522 7.70533 8.51957 7.89287 8.70711C8.08041 8.89464 8.33476 9 8.59998 9C8.86519 9 9.11955 8.89464 9.30708 8.70711C9.49462 8.51957 9.59998 8.26522 9.59998 8C9.59998 7.73478 9.49462 7.48043 9.30708 7.29289C9.11955 7.10536 8.86519 7 8.59998 7Z" fill="white"/>
</g>
<defs>
<clipPath id="clip0_359_1136">
<rect width="24" height="24" fill="white" transform="translate(0.599976)"/>
</clipPath>
</defs>
</svg>
