<svg width="72" height="54" viewBox="0 0 72 54" fill="none" xmlns="http://www.w3.org/2000/svg">
<path fill-rule="evenodd" clip-rule="evenodd" d="M1.32008 36.1394C0.62663 36.8556 1.13421 38.0535 2.13117 38.0535H7.4946C7.79931 38.0535 8.09109 37.9303 8.30361 37.7119L35.6866 9.57615L36.8912 11.365L12.491 36.1323C11.788 36.8459 12.2935 38.0535 13.2952 38.0535H17.5175C17.8168 38.0535 18.1038 37.9347 18.3155 37.7232L38.0477 18.0061L55.2684 36.2257H44.6915L36.519 29.8227C36.0948 29.4904 35.4949 29.5042 35.0864 29.8556L27.683 36.2257H24.6986L38.705 22.5473L37.428 21.2397L22.194 36.1169C21.4698 36.8241 21.9705 38.0535 22.9827 38.0535H27.9423C28.2125 38.0535 28.4738 37.9566 28.6786 37.7803L35.8435 31.6154L43.7541 37.8132C43.9528 37.9689 44.1979 38.0535 44.4503 38.0535H56.8906C57.8811 38.0535 58.3914 36.869 57.711 36.1491L38.8825 16.2284C38.4458 15.7663 37.7138 15.7559 37.2641 16.2053L17.2282 36.2257H14.9648L38.5941 12.2408C38.971 11.8583 39.0262 11.2633 38.7263 10.8179L36.7222 7.84168C36.322 7.24735 35.4766 7.17139 34.9768 7.68486L7.19956 36.2257H3.78043L35.8199 3.13087L68.2071 36.2257H62.9689L40.945 13.827L39.6418 15.1084L61.871 37.7161C62.0833 37.9319 62.3733 38.0535 62.676 38.0535H69.8688C70.8687 38.0535 71.375 36.8496 70.6757 36.135L36.624 1.33933C36.1796 0.885189 35.4481 0.887165 35.0061 1.3437L1.32008 36.1394Z" fill="#2EA007" stroke="#2EA007" stroke-width="0.3"/>
<path d="M9.936 50.108C9.672 50.108 9.456 50.04 9.288 49.904C9.128 49.768 9.008 49.568 8.928 49.304L7.008 42.692C6.944 42.46 6.94 42.26 6.996 42.092C7.052 41.916 7.152 41.78 7.296 41.684C7.44 41.588 7.612 41.54 7.812 41.54C8.044 41.54 8.236 41.6 8.388 41.72C8.548 41.832 8.668 42.044 8.748 42.356L10.356 48.296H9.768L13.368 42.188C13.504 41.956 13.648 41.792 13.8 41.696C13.952 41.592 14.152 41.54 14.4 41.54C14.648 41.54 14.84 41.6 14.976 41.72C15.12 41.832 15.2 41.98 15.216 42.164C15.24 42.348 15.188 42.54 15.06 42.74L10.992 49.46C10.856 49.684 10.708 49.848 10.548 49.952C10.388 50.056 10.184 50.108 9.936 50.108ZM18.5773 50.132C17.9613 50.132 17.4253 50.02 16.9693 49.796C16.5133 49.564 16.1613 49.244 15.9133 48.836C15.6653 48.428 15.5413 47.956 15.5413 47.42C15.5413 46.748 15.6853 46.156 15.9733 45.644C16.2613 45.132 16.6533 44.728 17.1493 44.432C17.6533 44.136 18.2213 43.988 18.8533 43.988C19.3493 43.988 19.7693 44.072 20.1133 44.24C20.4573 44.408 20.7293 44.636 20.9293 44.924C21.1293 45.204 21.2613 45.528 21.3253 45.896C21.3973 46.256 21.4133 46.628 21.3733 47.012C21.3493 47.196 21.2973 47.316 21.2173 47.372C21.1373 47.42 21.0293 47.444 20.8933 47.444H17.0053L17.1373 46.508H20.1493L19.9573 46.676C19.9973 46.388 19.9853 46.136 19.9213 45.92C19.8573 45.696 19.7373 45.52 19.5613 45.392C19.3853 45.256 19.1453 45.188 18.8413 45.188C18.5373 45.188 18.2773 45.26 18.0613 45.404C17.8533 45.54 17.6893 45.72 17.5693 45.944C17.4493 46.16 17.3653 46.4 17.3173 46.664L17.2573 47.084C17.1693 47.612 17.2573 48.028 17.5213 48.332C17.7933 48.628 18.2053 48.776 18.7573 48.776C18.9653 48.776 19.1893 48.752 19.4293 48.704C19.6773 48.656 19.8973 48.584 20.0893 48.488C20.2653 48.4 20.4173 48.372 20.5453 48.404C20.6813 48.428 20.7853 48.492 20.8573 48.596C20.9293 48.7 20.9653 48.82 20.9653 48.956C20.9733 49.084 20.9373 49.216 20.8573 49.352C20.7853 49.48 20.6693 49.588 20.5093 49.676C20.2293 49.828 19.9133 49.94 19.5613 50.012C19.2093 50.092 18.8813 50.132 18.5773 50.132ZM24.0712 50.108C23.7752 50.108 23.5592 50.02 23.4232 49.844C23.2952 49.66 23.2592 49.408 23.3152 49.088L23.9752 44.876C24.0232 44.588 24.1312 44.372 24.2992 44.228C24.4752 44.084 24.7032 44.012 24.9832 44.012C25.2712 44.012 25.4792 44.1 25.6072 44.276C25.7352 44.444 25.7752 44.692 25.7272 45.02L25.6312 45.548H25.5232C25.6752 45.076 25.9312 44.704 26.2912 44.432C26.6592 44.16 27.0832 44.012 27.5632 43.988C27.8032 43.98 27.9712 44.024 28.0673 44.12C28.1632 44.208 28.2112 44.36 28.2112 44.576C28.2112 44.896 28.1352 45.132 27.9833 45.284C27.8392 45.436 27.6152 45.528 27.3112 45.56L26.9152 45.596C26.4432 45.644 26.1032 45.788 25.8952 46.028C25.6872 46.26 25.5472 46.6 25.4752 47.048L25.1272 49.232C25.0872 49.528 24.9752 49.748 24.7912 49.892C24.6152 50.036 24.3752 50.108 24.0712 50.108ZM31.5511 50.132C31.1111 50.132 30.7231 50.028 30.3871 49.82C30.0591 49.604 29.8031 49.308 29.6191 48.932C29.4431 48.548 29.3551 48.096 29.3551 47.576C29.3551 46.888 29.4751 46.276 29.7151 45.74C29.9551 45.196 30.2991 44.768 30.7471 44.456C31.1951 44.144 31.7191 43.988 32.3191 43.988C32.7591 43.988 33.1431 44.092 33.4711 44.3C33.8071 44.5 34.0431 44.796 34.1791 45.188L34.0831 45.176L34.5271 42.308C34.5751 42.012 34.6871 41.792 34.8631 41.648C35.0391 41.504 35.2751 41.432 35.5711 41.432C35.8591 41.432 36.0671 41.524 36.1951 41.708C36.3231 41.884 36.3631 42.14 36.3151 42.476L35.2471 49.184C35.2071 49.488 35.0991 49.72 34.9231 49.88C34.7471 50.032 34.5111 50.108 34.2151 50.108C33.9351 50.108 33.7311 50.012 33.6031 49.82C33.4831 49.62 33.4511 49.356 33.5071 49.028L33.5911 48.5V48.98C33.3671 49.332 33.0791 49.612 32.7271 49.82C32.3751 50.028 31.9831 50.132 31.5511 50.132ZM32.2831 48.776C32.6031 48.776 32.8751 48.68 33.0991 48.488C33.3231 48.296 33.4951 48.04 33.6151 47.72C33.7351 47.4 33.7951 47.036 33.7951 46.628C33.7951 46.212 33.6951 45.896 33.4951 45.68C33.3031 45.456 33.0351 45.344 32.6911 45.344C32.3711 45.344 32.0991 45.436 31.8751 45.62C31.6511 45.804 31.4791 46.06 31.3591 46.388C31.2391 46.708 31.1791 47.072 31.1791 47.48C31.1791 47.896 31.2751 48.216 31.4671 48.44C31.6671 48.664 31.9391 48.776 32.2831 48.776ZM38.6353 50.108C38.3393 50.108 38.1233 50.02 37.9873 49.844C37.8593 49.66 37.8233 49.408 37.8793 49.088L38.5393 44.876C38.5873 44.588 38.6953 44.372 38.8633 44.228C39.0393 44.084 39.2673 44.012 39.5473 44.012C39.8353 44.012 40.0433 44.1 40.1713 44.276C40.2993 44.444 40.3393 44.692 40.2913 45.02L40.1953 45.548H40.0873C40.2393 45.076 40.4953 44.704 40.8553 44.432C41.2233 44.16 41.6473 44.012 42.1273 43.988C42.3673 43.98 42.5353 44.024 42.6313 44.12C42.7273 44.208 42.7753 44.36 42.7753 44.576C42.7753 44.896 42.6993 45.132 42.5473 45.284C42.4033 45.436 42.1793 45.528 41.8753 45.56L41.4793 45.596C41.0073 45.644 40.6673 45.788 40.4593 46.028C40.2513 46.26 40.1113 46.6 40.0393 47.048L39.6913 49.232C39.6513 49.528 39.5393 49.748 39.3553 49.892C39.1793 50.036 38.9393 50.108 38.6353 50.108ZM46.8232 50.132C46.2152 50.132 45.6952 50.02 45.2632 49.796C44.8312 49.572 44.4992 49.256 44.2672 48.848C44.0432 48.44 43.9312 47.964 43.9312 47.42C43.9312 46.876 44.0192 46.392 44.1952 45.968C44.3792 45.536 44.6272 45.176 44.9392 44.888C45.2592 44.592 45.6192 44.368 46.0192 44.216C46.4272 44.064 46.8552 43.988 47.3032 43.988C47.9112 43.988 48.4312 44.1 48.8632 44.324C49.2952 44.54 49.6272 44.852 49.8592 45.26C50.0912 45.668 50.2072 46.144 50.2072 46.688C50.2072 47.24 50.1152 47.728 49.9312 48.152C49.7472 48.576 49.4952 48.936 49.1752 49.232C48.8632 49.528 48.5032 49.752 48.0952 49.904C47.6952 50.056 47.2712 50.132 46.8232 50.132ZM46.8712 48.776C47.1912 48.776 47.4592 48.684 47.6752 48.5C47.8992 48.308 48.0712 48.052 48.1912 47.732C48.3192 47.404 48.3832 47.036 48.3832 46.628C48.3832 46.212 48.2832 45.896 48.0832 45.68C47.8832 45.456 47.6112 45.344 47.2672 45.344C46.9552 45.344 46.6832 45.436 46.4512 45.62C46.2272 45.804 46.0552 46.06 45.9352 46.388C45.8152 46.708 45.7552 47.072 45.7552 47.48C45.7552 47.896 45.8512 48.216 46.0432 48.44C46.2432 48.664 46.5192 48.776 46.8712 48.776ZM55.0896 50.132C54.4816 50.132 53.9616 50.02 53.5296 49.796C53.0976 49.572 52.7656 49.256 52.5336 48.848C52.3096 48.44 52.1976 47.964 52.1976 47.42C52.1976 46.876 52.2856 46.392 52.4616 45.968C52.6456 45.536 52.8936 45.176 53.2056 44.888C53.5256 44.592 53.8856 44.368 54.2856 44.216C54.6936 44.064 55.1216 43.988 55.5696 43.988C56.1776 43.988 56.6976 44.1 57.1296 44.324C57.5616 44.54 57.8936 44.852 58.1256 45.26C58.3576 45.668 58.4736 46.144 58.4736 46.688C58.4736 47.24 58.3816 47.728 58.1976 48.152C58.0136 48.576 57.7616 48.936 57.4416 49.232C57.1296 49.528 56.7696 49.752 56.3616 49.904C55.9616 50.056 55.5376 50.132 55.0896 50.132ZM55.1376 48.776C55.4576 48.776 55.7256 48.684 55.9416 48.5C56.1656 48.308 56.3376 48.052 56.4576 47.732C56.5856 47.404 56.6496 47.036 56.6496 46.628C56.6496 46.212 56.5496 45.896 56.3496 45.68C56.1496 45.456 55.8776 45.344 55.5336 45.344C55.2216 45.344 54.9496 45.436 54.7176 45.62C54.4936 45.804 54.3216 46.06 54.2016 46.388C54.0816 46.708 54.0216 47.072 54.0216 47.48C54.0216 47.896 54.1176 48.216 54.3096 48.44C54.5096 48.664 54.7856 48.776 55.1376 48.776ZM61.5934 50.108C61.3054 50.108 61.0974 50.016 60.9694 49.832C60.8414 49.64 60.8014 49.38 60.8494 49.052L61.4254 45.464H61.0414C60.8174 45.464 60.6454 45.416 60.5254 45.32C60.4054 45.224 60.3454 45.088 60.3454 44.912C60.3454 44.664 60.4174 44.468 60.5614 44.324C60.7054 44.18 60.9014 44.108 61.1494 44.108H61.8094L61.6054 44.288L61.6654 43.928C61.7694 43.216 62.0494 42.652 62.5054 42.236C62.9694 41.812 63.6614 41.572 64.5814 41.516L64.9054 41.492C65.0974 41.484 65.2454 41.524 65.3494 41.612C65.4534 41.692 65.5214 41.796 65.5534 41.924C65.5854 42.044 65.5854 42.172 65.5534 42.308C65.5214 42.444 65.4574 42.56 65.3614 42.656C65.2734 42.744 65.1614 42.796 65.0254 42.812L64.7134 42.836C64.3294 42.868 64.0414 42.968 63.8494 43.136C63.6574 43.296 63.5334 43.54 63.4774 43.868L63.4174 44.252L63.2974 44.108H64.2094C64.4334 44.108 64.6054 44.156 64.7254 44.252C64.8534 44.348 64.9174 44.48 64.9174 44.648C64.9174 44.904 64.8414 45.104 64.6894 45.248C64.5454 45.392 64.3494 45.464 64.1014 45.464H63.2374L62.6374 49.208C62.5334 49.808 62.1854 50.108 61.5934 50.108Z" fill="#2EA007"/>
</svg>
